<svg width="24" height="24" viewBox="0 0 24 24" fill="none" xmlns="http://www.w3.org/2000/svg">
<path d="M19.75 12.05C19.55 12.05 19.3542 11.9792 19.1625 11.8375C18.9708 11.6958 18.85 11.5167 18.8 11.3C18.7167 10.9833 18.6125 10.6708 18.4875 10.3625C18.3625 10.0542 18.2167 9.75834 18.05 9.47501C17.9333 9.29167 17.8917 9.08751 17.925 8.86251C17.9583 8.63751 18.05 8.45001 18.2 8.30001C18.45 8.06667 18.7375 7.96667 19.0625 8.00001C19.3875 8.03334 19.6333 8.19167 19.8 8.47501C20.0167 8.84167 20.2083 9.21667 20.375 9.60001C20.5417 9.98334 20.675 10.3833 20.775 10.8C20.8583 11.1333 20.7958 11.425 20.5875 11.675C20.3792 11.925 20.1 12.05 19.75 12.05ZM13.05 20.75C13.05 20.55 13.1208 20.3542 13.2625 20.1625C13.4042 19.9708 13.5833 19.85 13.8 19.8C14.1167 19.7167 14.4292 19.6125 14.7375 19.4875C15.0458 19.3625 15.3417 19.2167 15.625 19.05C15.8083 18.9333 16.0125 18.8917 16.2375 18.925C16.4625 18.9583 16.65 19.05 16.8 19.2C17.0333 19.45 17.1333 19.7375 17.1 20.0625C17.0667 20.3875 16.9083 20.6333 16.625 20.8C16.2417 21.0167 15.8583 21.2042 15.475 21.3625C15.0917 21.5208 14.7 21.6583 14.3 21.775C13.9667 21.8583 13.675 21.8 13.425 21.6C13.175 21.4 13.05 21.1167 13.05 20.75ZM18.2 17.8C18.05 17.6667 17.9583 17.4833 17.925 17.25C17.8917 17.0167 17.9333 16.8083 18.05 16.625C18.2167 16.3417 18.3625 16.0458 18.4875 15.7375C18.6125 15.4292 18.7167 15.1167 18.8 14.8C18.85 14.5833 18.9667 14.4042 19.15 14.2625C19.3333 14.1208 19.5333 14.05 19.75 14.05C20.1167 14.05 20.4 14.175 20.6 14.425C20.8 14.675 20.8583 14.9667 20.775 15.3C20.6583 15.7 20.5208 16.0917 20.3625 16.475C20.2042 16.8583 20.0167 17.2417 19.8 17.625C19.6333 17.9083 19.3875 18.0667 19.0625 18.1C18.7375 18.1333 18.45 18.0333 18.2 17.8ZM9.82499 21.75C7.84165 21.2167 6.21665 20.15 4.94999 18.55C3.68332 16.95 3.04999 15.1167 3.04999 13.05C3.04999 10.55 3.92499 8.42501 5.67499 6.67501C7.42499 4.92501 9.54999 4.05001 12.05 4.05001H12.2L11.325 3.17501C11.1417 2.99167 11.05 2.75834 11.05 2.47501C11.05 2.19167 11.15 1.95001 11.35 1.75001C11.5333 1.56667 11.7667 1.47501 12.05 1.47501C12.3333 1.47501 12.575 1.56667 12.775 1.75001L15.35 4.35001C15.45 4.45001 15.5208 4.55834 15.5625 4.67501C15.6042 4.79167 15.625 4.91667 15.625 5.05001C15.625 5.18334 15.6042 5.30834 15.5625 5.42501C15.5208 5.54167 15.45 5.65001 15.35 5.75001L12.75 8.35001C12.5667 8.53334 12.3333 8.62501 12.05 8.62501C11.7667 8.62501 11.5333 8.53334 11.35 8.35001C11.1667 8.16667 11.075 7.93334 11.075 7.65001C11.075 7.36667 11.1667 7.13334 11.35 6.95001L12.25 6.05001H12.05C10.1 6.05001 8.44582 6.72917 7.08749 8.08751C5.72915 9.44584 5.04999 11.1 5.04999 13.05C5.04999 14.6667 5.54165 16.0958 6.52499 17.3375C7.50832 18.5792 8.76665 19.4 10.3 19.8C10.5167 19.85 10.6958 19.9667 10.8375 20.15C10.9792 20.3333 11.05 20.5333 11.05 20.75C11.05 21.1 10.9292 21.375 10.6875 21.575C10.4458 21.775 10.1583 21.8333 9.82499 21.75Z" fill="black"/>
</svg>
