<svg width="24" height="24" viewBox="0 0 24 24" fill="none" xmlns="http://www.w3.org/2000/svg">
<path d="M4.25 12.05C3.9 12.05 3.62083 11.925 3.4125 11.675C3.20416 11.425 3.14166 11.1333 3.225 10.8C3.325 10.3833 3.45833 9.98334 3.625 9.60001C3.79166 9.21667 3.98333 8.84167 4.2 8.47501C4.36666 8.19167 4.6125 8.03334 4.9375 8.00001C5.2625 7.96667 5.55 8.06667 5.8 8.30001C5.95 8.45001 6.04166 8.63751 6.075 8.86251C6.10833 9.08751 6.06666 9.29167 5.95 9.47501C5.78333 9.75834 5.6375 10.0542 5.5125 10.3625C5.3875 10.6708 5.28333 10.9833 5.2 11.3C5.15 11.5167 5.02916 11.6958 4.8375 11.8375C4.64583 11.9792 4.45 12.05 4.25 12.05ZM10.95 20.75C10.95 21.1167 10.825 21.4 10.575 21.6C10.325 21.8 10.0333 21.8583 9.7 21.775C9.3 21.6583 8.90833 21.5208 8.525 21.3625C8.14166 21.2042 7.75833 21.0167 7.375 20.8C7.09166 20.6333 6.93333 20.3875 6.9 20.0625C6.86666 19.7375 6.96666 19.45 7.2 19.2C7.35 19.05 7.5375 18.9583 7.7625 18.925C7.9875 18.8917 8.19166 18.9333 8.375 19.05C8.65833 19.2167 8.95416 19.3625 9.2625 19.4875C9.57083 19.6125 9.88333 19.7167 10.2 19.8C10.4167 19.85 10.5958 19.9708 10.7375 20.1625C10.8792 20.3542 10.95 20.55 10.95 20.75ZM5.8 17.8C5.55 18.0333 5.2625 18.1333 4.9375 18.1C4.6125 18.0667 4.36666 17.9083 4.2 17.625C3.98333 17.2417 3.79583 16.8583 3.6375 16.475C3.47916 16.0917 3.34166 15.7 3.225 15.3C3.14166 14.9667 3.2 14.675 3.4 14.425C3.6 14.175 3.88333 14.05 4.25 14.05C4.46666 14.05 4.66666 14.1208 4.85 14.2625C5.03333 14.4042 5.15 14.5833 5.2 14.8C5.28333 15.1167 5.3875 15.4292 5.5125 15.7375C5.6375 16.0458 5.78333 16.3417 5.95 16.625C6.06666 16.8083 6.10833 17.0167 6.075 17.25C6.04166 17.4833 5.95 17.6667 5.8 17.8ZM14.175 21.75C13.8417 21.8333 13.5542 21.775 13.3125 21.575C13.0708 21.375 12.95 21.1 12.95 20.75C12.95 20.5333 13.0208 20.3333 13.1625 20.15C13.3042 19.9667 13.4833 19.85 13.7 19.8C15.2333 19.4 16.4917 18.5792 17.475 17.3375C18.4583 16.0958 18.95 14.6667 18.95 13.05C18.95 11.1 18.2708 9.44584 16.9125 8.08751C15.5542 6.72917 13.9 6.05001 11.95 6.05001H11.75L12.65 6.95001C12.8333 7.13334 12.925 7.36667 12.925 7.65001C12.925 7.93334 12.8333 8.16667 12.65 8.35001C12.4667 8.53334 12.2333 8.62501 11.95 8.62501C11.6667 8.62501 11.4333 8.53334 11.25 8.35001L8.65 5.75001C8.55 5.65001 8.47916 5.54167 8.4375 5.42501C8.39583 5.30834 8.375 5.18334 8.375 5.05001C8.375 4.91667 8.39583 4.79167 8.4375 4.67501C8.47916 4.55834 8.55 4.45001 8.65 4.35001L11.225 1.75001C11.425 1.56667 11.6667 1.47501 11.95 1.47501C12.2333 1.47501 12.4667 1.56667 12.65 1.75001C12.85 1.95001 12.95 2.19167 12.95 2.47501C12.95 2.75834 12.8583 2.99167 12.675 3.17501L11.8 4.05001H11.95C14.45 4.05001 16.575 4.92501 18.325 6.67501C20.075 8.42501 20.95 10.55 20.95 13.05C20.95 15.1167 20.3167 16.95 19.05 18.55C17.7833 20.15 16.1583 21.2167 14.175 21.75Z" fill="black"/>
</svg>
