<svg width="24" height="24" viewBox="0 0 24 24" fill="none" xmlns="http://www.w3.org/2000/svg">
<path d="M13.55 12.475L16.75 10.325C17.05 10.125 17.2 9.85 17.2 9.5C17.2 9.15 17.05 8.875 16.75 8.675L13.55 6.525C13.2167 6.29167 12.875 6.275 12.525 6.475C12.175 6.675 12 6.975 12 7.375V11.625C12 12.025 12.175 12.325 12.525 12.525C12.875 12.725 13.2167 12.7083 13.55 12.475ZM5.7 21.875C5.15 21.9583 4.65417 21.8292 4.2125 21.4875C3.77084 21.1458 3.51667 20.7 3.45 20.15L2.125 9.225C2.05834 8.675 2.19167 8.18333 2.525 7.75C2.85834 7.31667 3.3 7.06667 3.85 7L5 6.85V15C5 16.1 5.39167 17.0417 6.175 17.825C6.95834 18.6083 7.9 19 9 19H18.3C18.2 19.4 18 19.7458 17.7 20.0375C17.4 20.3292 17.0333 20.5 16.6 20.55L5.7 21.875ZM9 17C8.45 17 7.97917 16.8042 7.5875 16.4125C7.19584 16.0208 7 15.55 7 15V4C7 3.45 7.19584 2.97917 7.5875 2.5875C7.97917 2.19583 8.45 2 9 2H20C20.55 2 21.0208 2.19583 21.4125 2.5875C21.8042 2.97917 22 3.45 22 4V15C22 15.55 21.8042 16.0208 21.4125 16.4125C21.0208 16.8042 20.55 17 20 17H9Z" fill="black"/>
</svg>
