<svg width="24" height="24" viewBox="0 0 24 24" fill="none" xmlns="http://www.w3.org/2000/svg">
<path d="M4 20C3.45 20 2.97917 19.8042 2.5875 19.4125C2.19583 19.0208 2 18.55 2 18V6C2 5.45 2.19583 4.97917 2.5875 4.5875C2.97917 4.19583 3.45 4 4 4H20C20.55 4 21.0208 4.19583 21.4125 4.5875C21.8042 4.97917 22 5.45 22 6V18C22 18.55 21.8042 19.0208 21.4125 19.4125C21.0208 19.8042 20.55 20 20 20H4ZM14 12V13C14 13.2833 14.0958 13.5208 14.2875 13.7125C14.4792 13.9042 14.7167 14 15 14C15.2833 14 15.5208 13.9042 15.7125 13.7125C15.9042 13.5208 16 13.2833 16 13V12H17C17.2833 12 17.5208 11.9042 17.7125 11.7125C17.9042 11.5208 18 11.2833 18 11C18 10.7167 17.9042 10.4792 17.7125 10.2875C17.5208 10.0958 17.2833 10 17 10H16V9C16 8.71667 15.9042 8.47917 15.7125 8.2875C15.5208 8.09583 15.2833 8 15 8C14.7167 8 14.4792 8.09583 14.2875 8.2875C14.0958 8.47917 14 8.71667 14 9V10H13C12.7167 10 12.4792 10.0958 12.2875 10.2875C12.0958 10.4792 12 10.7167 12 11C12 11.2833 12.0958 11.5208 12.2875 11.7125C12.4792 11.9042 12.7167 12 13 12H14Z" fill="black"/>
</svg>
