<svg width="24" height="24" viewBox="0 0 24 24" fill="none" xmlns="http://www.w3.org/2000/svg">
<path d="M18.175 12.9999L13 12.9999L13 10.9999L18.175 10.9999L16.3 9.1249C16.1167 8.9249 16.0208 8.6874 16.0125 8.4124C16.0042 8.1374 16.1 7.8999 16.3 7.6999C16.5 7.4999 16.7333 7.3999 17 7.3999C17.2667 7.3999 17.5 7.4999 17.7 7.6999L21.3 11.2999C21.4 11.3999 21.4708 11.5082 21.5125 11.6249C21.5542 11.7416 21.575 11.8666 21.575 11.9999C21.575 12.1332 21.5542 12.2582 21.5125 12.3749C21.4708 12.4916 21.4 12.5999 21.3 12.6999L17.7 16.2999C17.5 16.4999 17.2667 16.5999 17 16.5999C16.7333 16.5999 16.5 16.4999 16.3 16.2999C16.1 16.0999 16 15.8624 16 15.5874C16 15.3124 16.1 15.0749 16.3 14.8749L18.175 12.9999ZM5.82499 12.9999L7.69999 14.8749C7.88332 15.0749 7.97915 15.3124 7.98749 15.5874C7.99582 15.8624 7.89999 16.0999 7.69999 16.2999C7.49999 16.4999 7.26665 16.5999 6.99999 16.5999C6.73332 16.5999 6.49999 16.4999 6.29999 16.2999L2.69999 12.6999C2.59999 12.5999 2.52915 12.4916 2.48749 12.3749C2.44582 12.2582 2.42499 12.1332 2.42499 11.9999C2.42499 11.8666 2.44582 11.7416 2.48749 11.6249C2.52915 11.5082 2.59999 11.3999 2.69999 11.2999L6.29999 7.6999C6.49999 7.4999 6.73332 7.3999 6.99999 7.3999C7.26665 7.3999 7.49999 7.4999 7.69999 7.6999C7.89999 7.8999 7.99999 8.1374 7.99999 8.4124C7.99999 8.6874 7.89999 8.9249 7.69999 9.1249L5.82499 10.9999L11 10.9999L11 12.9999L5.82499 12.9999Z" fill="#E3E3E3"/>
</svg>
