<svg width="24" height="24" viewBox="0 0 24 24" fill="none" xmlns="http://www.w3.org/2000/svg">
<path d="M21 6C21.2833 6 21.5208 6.09583 21.7125 6.2875C21.9042 6.47917 22 6.71667 22 7L22 17C22 17.2833 21.9042 17.5208 21.7125 17.7125C21.5208 17.9042 21.2833 18 21 18C20.7167 18 20.4792 17.9042 20.2875 17.7125C20.0958 17.5208 20 17.2833 20 17L20 7C20 6.71667 20.0958 6.47917 20.2875 6.2875C20.4792 6.09583 20.7167 6 21 6ZM14.175 11L11.3 8.125C11.1 7.925 11 7.6875 11 7.4125C11 7.1375 11.1 6.9 11.3 6.7C11.5 6.51667 11.7375 6.425 12.0125 6.425C12.2875 6.425 12.5167 6.51667 12.7 6.7L17.3 11.3C17.4 11.4 17.4708 11.5083 17.5125 11.625C17.5542 11.7417 17.575 11.8667 17.575 12C17.575 12.1333 17.5542 12.2583 17.5125 12.375C17.4708 12.4917 17.4 12.6 17.3 12.7L12.7 17.3C12.5167 17.4833 12.2833 17.575 12 17.575C11.7167 17.575 11.4833 17.4833 11.3 17.3C11.1 17.1 11.0042 16.8625 11.0125 16.5875C11.0208 16.3125 11.1167 16.0833 11.3 15.9L14.175 13L3 13C2.71667 13 2.47917 12.9042 2.2875 12.7125C2.09583 12.5208 2 12.2833 2 12C2 11.7167 2.09583 11.4792 2.2875 11.2875C2.47917 11.0958 2.71667 11 3 11L14.175 11Z" fill="#E3E3E3"/>
</svg>
