<svg width="24" height="24" viewBox="0 0 24 24" fill="none" xmlns="http://www.w3.org/2000/svg">
<path d="M4.85 19H10.85C11.05 19 11.2 18.9083 11.3 18.725C11.4 18.5417 11.3833 18.3667 11.25 18.2L9.65 16.025C9.55 15.8917 9.41667 15.825 9.25 15.825C9.08333 15.825 8.95 15.8917 8.85 16.025L7.75 17.475C7.65 17.6083 7.51667 17.675 7.35 17.675C7.18333 17.675 7.05 17.6083 6.95 17.475L6.35 16.675C6.25 16.5417 6.11667 16.4792 5.95 16.4875C5.78333 16.4958 5.65 16.5667 5.55 16.7L4.425 18.2C4.29167 18.3667 4.27917 18.5417 4.3875 18.725C4.49583 18.9083 4.65 19 4.85 19ZM5 21C4.45 21 3.97917 20.8042 3.5875 20.4125C3.19583 20.0208 3 19.55 3 19V13C3 12.45 3.19583 11.9792 3.5875 11.5875C3.97917 11.1958 4.45 11 5 11H11C11.55 11 12.0208 11.1958 12.4125 11.5875C12.8042 11.9792 13 12.45 13 13V19C13 19.55 12.8042 20.0208 12.4125 20.4125C12.0208 20.8042 11.55 21 11 21H5ZM4 5C3.71667 5 3.47917 4.90417 3.2875 4.7125C3.09583 4.52083 3 4.28333 3 4C3 3.71667 3.09583 3.47917 3.2875 3.2875C3.47917 3.09583 3.71667 3 4 3C4.28333 3 4.52083 3.09583 4.7125 3.2875C4.90417 3.47917 5 3.71667 5 4C5 4.28333 4.90417 4.52083 4.7125 4.7125C4.52083 4.90417 4.28333 5 4 5ZM8 5C7.71667 5 7.47917 4.90417 7.2875 4.7125C7.09583 4.52083 7 4.28333 7 4C7 3.71667 7.09583 3.47917 7.2875 3.2875C7.47917 3.09583 7.71667 3 8 3C8.28333 3 8.52083 3.09583 8.7125 3.2875C8.90417 3.47917 9 3.71667 9 4C9 4.28333 8.90417 4.52083 8.7125 4.7125C8.52083 4.90417 8.28333 5 8 5ZM12 5C11.7167 5 11.4792 4.90417 11.2875 4.7125C11.0958 4.52083 11 4.28333 11 4C11 3.71667 11.0958 3.47917 11.2875 3.2875C11.4792 3.09583 11.7167 3 12 3C12.2833 3 12.5208 3.09583 12.7125 3.2875C12.9042 3.47917 13 3.71667 13 4C13 4.28333 12.9042 4.52083 12.7125 4.7125C12.5208 4.90417 12.2833 5 12 5ZM16 5C15.7167 5 15.4792 4.90417 15.2875 4.7125C15.0958 4.52083 15 4.28333 15 4C15 3.71667 15.0958 3.47917 15.2875 3.2875C15.4792 3.09583 15.7167 3 16 3C16.2833 3 16.5208 3.09583 16.7125 3.2875C16.9042 3.47917 17 3.71667 17 4C17 4.28333 16.9042 4.52083 16.7125 4.7125C16.5208 4.90417 16.2833 5 16 5ZM20 5C19.7167 5 19.4792 4.90417 19.2875 4.7125C19.0958 4.52083 19 4.28333 19 4C19 3.71667 19.0958 3.47917 19.2875 3.2875C19.4792 3.09583 19.7167 3 20 3C20.2833 3 20.5208 3.09583 20.7125 3.2875C20.9042 3.47917 21 3.71667 21 4C21 4.28333 20.9042 4.52083 20.7125 4.7125C20.5208 4.90417 20.2833 5 20 5ZM16 21C15.7167 21 15.4792 20.9042 15.2875 20.7125C15.0958 20.5208 15 20.2833 15 20C15 19.7167 15.0958 19.4792 15.2875 19.2875C15.4792 19.0958 15.7167 19 16 19C16.2833 19 16.5208 19.0958 16.7125 19.2875C16.9042 19.4792 17 19.7167 17 20C17 20.2833 16.9042 20.5208 16.7125 20.7125C16.5208 20.9042 16.2833 21 16 21ZM4 9C3.71667 9 3.47917 8.90417 3.2875 8.7125C3.09583 8.52083 3 8.28333 3 8C3 7.71667 3.09583 7.47917 3.2875 7.2875C3.47917 7.09583 3.71667 7 4 7C4.28333 7 4.52083 7.09583 4.7125 7.2875C4.90417 7.47917 5 7.71667 5 8C5 8.28333 4.90417 8.52083 4.7125 8.7125C4.52083 8.90417 4.28333 9 4 9ZM20 9C19.7167 9 19.4792 8.90417 19.2875 8.7125C19.0958 8.52083 19 8.28333 19 8C19 7.71667 19.0958 7.47917 19.2875 7.2875C19.4792 7.09583 19.7167 7 20 7C20.2833 7 20.5208 7.09583 20.7125 7.2875C20.9042 7.47917 21 7.71667 21 8C21 8.28333 20.9042 8.52083 20.7125 8.7125C20.5208 8.90417 20.2833 9 20 9ZM20 13C19.7167 13 19.4792 12.9042 19.2875 12.7125C19.0958 12.5208 19 12.2833 19 12C19 11.7167 19.0958 11.4792 19.2875 11.2875C19.4792 11.0958 19.7167 11 20 11C20.2833 11 20.5208 11.0958 20.7125 11.2875C20.9042 11.4792 21 11.7167 21 12C21 12.2833 20.9042 12.5208 20.7125 12.7125C20.5208 12.9042 20.2833 13 20 13ZM20 17C19.7167 17 19.4792 16.9042 19.2875 16.7125C19.0958 16.5208 19 16.2833 19 16C19 15.7167 19.0958 15.4792 19.2875 15.2875C19.4792 15.0958 19.7167 15 20 15C20.2833 15 20.5208 15.0958 20.7125 15.2875C20.9042 15.4792 21 15.7167 21 16C21 16.2833 20.9042 16.5208 20.7125 16.7125C20.5208 16.9042 20.2833 17 20 17ZM20 21C19.7167 21 19.4792 20.9042 19.2875 20.7125C19.0958 20.5208 19 20.2833 19 20C19 19.7167 19.0958 19.4792 19.2875 19.2875C19.4792 19.0958 19.7167 19 20 19C20.2833 19 20.5208 19.0958 20.7125 19.2875C20.9042 19.4792 21 19.7167 21 20C21 20.2833 20.9042 20.5208 20.7125 20.7125C20.5208 20.9042 20.2833 21 20 21Z" fill="black"/>
</svg>
