<svg width="24" height="24" viewBox="0 0 24 24" fill="none" xmlns="http://www.w3.org/2000/svg">
<path d="M3 20V17.075C3 16.8083 3.05 16.5542 3.15 16.3125C3.25 16.0708 3.39167 15.8583 3.575 15.675L11.95 7.3L10.5 5.9L11.95 4.5L13.85 6.4L16.95 3.3C17.0333 3.21667 17.1375 3.15 17.2625 3.1C17.3875 3.05 17.5167 3.025 17.65 3.025C17.7833 3.025 17.9083 3.05 18.025 3.1C18.1417 3.15 18.25 3.21667 18.35 3.3L20.7 5.65C20.7833 5.75 20.85 5.85833 20.9 5.975C20.95 6.09167 20.975 6.21667 20.975 6.35C20.975 6.48333 20.95 6.6125 20.9 6.7375C20.85 6.8625 20.7833 6.96667 20.7 7.05L17.625 10.125L19.525 12.075L18.1 13.5L16.7 12.05L8.325 20.425C8.14167 20.6083 7.92917 20.75 7.6875 20.85C7.44583 20.95 7.19167 21 6.925 21H4C3.71667 21 3.47917 20.9042 3.2875 20.7125C3.09583 20.5208 3 20.2833 3 20ZM5 19H6.95L15.25 10.65L13.35 8.75L5 17.05V19Z" fill="black"/>
</svg>
