<svg width="24" height="24" viewBox="0 0 24 24" fill="none" xmlns="http://www.w3.org/2000/svg">
<path d="M8 19.425L5.75 21.675C5.55 21.875 5.31667 21.9708 5.05 21.9625C4.78333 21.9542 4.55 21.85 4.35 21.65C4.16667 21.45 4.07083 21.2167 4.0625 20.95C4.05417 20.6833 4.15 20.45 4.35 20.25L6.6 18H5.35C5.06667 18 4.82917 17.9042 4.6375 17.7125C4.44583 17.5208 4.35 17.2833 4.35 17C4.35 16.7167 4.44583 16.4792 4.6375 16.2875C4.82917 16.0958 5.06667 16 5.35 16H9C9.28333 16 9.52083 16.0958 9.7125 16.2875C9.90417 16.4792 10 16.7167 10 17V20.65C10 20.9333 9.90417 21.1708 9.7125 21.3625C9.52083 21.5542 9.28333 21.65 9 21.65C8.71667 21.65 8.47917 21.5542 8.2875 21.3625C8.09583 21.1708 8 20.9333 8 20.65V19.425ZM13 22C12.7167 22 12.4792 21.9042 12.2875 21.7125C12.0958 21.5208 12 21.2833 12 21V17C12 16.1667 11.7083 15.4583 11.125 14.875C10.5417 14.2917 9.83333 14 9 14H5C4.71667 14 4.47917 13.9042 4.2875 13.7125C4.09583 13.5208 4 13.2833 4 13V4C4 3.45 4.19583 2.97917 4.5875 2.5875C4.97917 2.19583 5.45 2 6 2H14L20 8V20C20 20.55 19.8042 21.0208 19.4125 21.4125C19.0208 21.8042 18.55 22 18 22H13ZM13 9H18L13 4V9Z" fill="black"/>
</svg>
