<svg width="24" height="24" viewBox="0 0 24 24" fill="none" xmlns="http://www.w3.org/2000/svg">
<path d="M20 8V6H18C17.7167 6 17.4792 5.90417 17.2875 5.7125C17.0958 5.52083 17 5.28333 17 5C17 4.71667 17.0958 4.47917 17.2875 4.2875C17.4792 4.09583 17.7167 4 18 4H20C20.55 4 21.0208 4.19583 21.4125 4.5875C21.8042 4.97917 22 5.45 22 6V8C22 8.28333 21.9042 8.52083 21.7125 8.7125C21.5208 8.90417 21.2833 9 21 9C20.7167 9 20.4792 8.90417 20.2875 8.7125C20.0958 8.52083 20 8.28333 20 8ZM2 8V6C2 5.45 2.19583 4.97917 2.5875 4.5875C2.97917 4.19583 3.45 4 4 4H6C6.28333 4 6.52083 4.09583 6.7125 4.2875C6.90417 4.47917 7 4.71667 7 5C7 5.28333 6.90417 5.52083 6.7125 5.7125C6.52083 5.90417 6.28333 6 6 6H4V8C4 8.28333 3.90417 8.52083 3.7125 8.7125C3.52083 8.90417 3.28333 9 3 9C2.71667 9 2.47917 8.90417 2.2875 8.7125C2.09583 8.52083 2 8.28333 2 8ZM20 20H18C17.7167 20 17.4792 19.9042 17.2875 19.7125C17.0958 19.5208 17 19.2833 17 19C17 18.7167 17.0958 18.4792 17.2875 18.2875C17.4792 18.0958 17.7167 18 18 18H20V16C20 15.7167 20.0958 15.4792 20.2875 15.2875C20.4792 15.0958 20.7167 15 21 15C21.2833 15 21.5208 15.0958 21.7125 15.2875C21.9042 15.4792 22 15.7167 22 16V18C22 18.55 21.8042 19.0208 21.4125 19.4125C21.0208 19.8042 20.55 20 20 20ZM4 20C3.45 20 2.97917 19.8042 2.5875 19.4125C2.19583 19.0208 2 18.55 2 18V16C2 15.7167 2.09583 15.4792 2.2875 15.2875C2.47917 15.0958 2.71667 15 3 15C3.28333 15 3.52083 15.0958 3.7125 15.2875C3.90417 15.4792 4 15.7167 4 16V18H6C6.28333 18 6.52083 18.0958 6.7125 18.2875C6.90417 18.4792 7 18.7167 7 19C7 19.2833 6.90417 19.5208 6.7125 19.7125C6.52083 19.9042 6.28333 20 6 20H4ZM6 14V10C6 9.45 6.19583 8.97917 6.5875 8.5875C6.97917 8.19583 7.45 8 8 8H16C16.55 8 17.0208 8.19583 17.4125 8.5875C17.8042 8.97917 18 9.45 18 10V14C18 14.55 17.8042 15.0208 17.4125 15.4125C17.0208 15.8042 16.55 16 16 16H8C7.45 16 6.97917 15.8042 6.5875 15.4125C6.19583 15.0208 6 14.55 6 14Z" fill="black"/>
</svg>
