<svg width="24" height="24" viewBox="0 0 24 24" fill="none" xmlns="http://www.w3.org/2000/svg">
<path d="M2 15V9C2 8.45 2.19583 7.97917 2.5875 7.5875C2.97917 7.19583 3.45 7 4 7C4.55 7 5.02083 7.19583 5.4125 7.5875C5.80417 7.97917 6 8.45 6 9V15C6 15.55 5.80417 16.0208 5.4125 16.4125C5.02083 16.8042 4.55 17 4 17C3.45 17 2.97917 16.8042 2.5875 16.4125C2.19583 16.0208 2 15.55 2 15ZM9 19C8.45 19 7.97917 18.8042 7.5875 18.4125C7.19583 18.0208 7 17.55 7 17V7C7 6.45 7.19583 5.97917 7.5875 5.5875C7.97917 5.19583 8.45 5 9 5H15C15.55 5 16.0208 5.19583 16.4125 5.5875C16.8042 5.97917 17 6.45 17 7V17C17 17.55 16.8042 18.0208 16.4125 18.4125C16.0208 18.8042 15.55 19 15 19H9ZM18 15V9C18 8.45 18.1958 7.97917 18.5875 7.5875C18.9792 7.19583 19.45 7 20 7C20.55 7 21.0208 7.19583 21.4125 7.5875C21.8042 7.97917 22 8.45 22 9V15C22 15.55 21.8042 16.0208 21.4125 16.4125C21.0208 16.8042 20.55 17 20 17C19.45 17 18.9792 16.8042 18.5875 16.4125C18.1958 16.0208 18 15.55 18 15Z" fill="black"/>
</svg>
