<svg width="24" height="24" viewBox="0 0 24 24" fill="none" xmlns="http://www.w3.org/2000/svg">
<path d="M7.84999 11H19C19.2833 11 19.5208 11.0958 19.7125 11.2875C19.9042 11.4792 20 11.7167 20 12C20 12.2833 19.9042 12.5208 19.7125 12.7125C19.5208 12.9042 19.2833 13 19 13H7.84999L10.7 15.85C10.9 16.05 10.9958 16.2833 10.9875 16.55C10.9792 16.8167 10.8833 17.05 10.7 17.25C10.5 17.45 10.2625 17.5542 9.98749 17.5625C9.71249 17.5708 9.47499 17.475 9.27499 17.275L4.69999 12.7C4.59999 12.6 4.52916 12.4917 4.48749 12.375C4.44582 12.2583 4.42499 12.1333 4.42499 12C4.42499 11.8667 4.44582 11.7417 4.48749 11.625C4.52916 11.5083 4.59999 11.4 4.69999 11.3L9.27499 6.72499C9.47499 6.52499 9.71249 6.42915 9.98749 6.43749C10.2625 6.44582 10.5 6.54999 10.7 6.74999C10.8833 6.94999 10.9792 7.18332 10.9875 7.44999C10.9958 7.71665 10.9 7.94999 10.7 8.14999L7.84999 11Z" fill="black"/>
</svg>
