<svg width="24" height="24" viewBox="0 0 24 24" fill="none" xmlns="http://www.w3.org/2000/svg">
<path d="M13 5.82519L13 11.0002L11 11.0002L11 5.82519L9.12502 7.7002C8.92502 7.88353 8.68752 7.97936 8.41252 7.9877C8.13752 7.99603 7.90002 7.9002 7.70002 7.7002C7.50002 7.5002 7.40002 7.26686 7.40002 7.0002C7.40002 6.73353 7.50002 6.5002 7.70002 6.3002L11.3 2.70019C11.4 2.60019 11.5084 2.52936 11.625 2.48769C11.7417 2.44603 11.8667 2.42519 12 2.42519C12.1334 2.42519 12.2584 2.44603 12.375 2.48769C12.4917 2.52936 12.6 2.60019 12.7 2.70019L16.3 6.30019C16.5 6.50019 16.6 6.73353 16.6 7.00019C16.6 7.26686 16.5 7.50019 16.3 7.70019C16.1 7.90019 15.8625 8.00019 15.5875 8.00019C15.3125 8.00019 15.075 7.90019 14.875 7.70019L13 5.82519ZM13 18.1752L14.875 16.3002C15.075 16.1169 15.3125 16.021 15.5875 16.0127C15.8625 16.0044 16.1 16.1002 16.3 16.3002C16.5 16.5002 16.6 16.7335 16.6 17.0002C16.6 17.2669 16.5 17.5002 16.3 17.7002L12.7 21.3002C12.6 21.4002 12.4917 21.471 12.375 21.5127C12.2584 21.5544 12.1334 21.5752 12 21.5752C11.8667 21.5752 11.7417 21.5544 11.625 21.5127C11.5084 21.471 11.4 21.4002 11.3 21.3002L7.70002 17.7002C7.50002 17.5002 7.40002 17.2669 7.40002 17.0002C7.40002 16.7335 7.50002 16.5002 7.70002 16.3002C7.90002 16.1002 8.13752 16.0002 8.41252 16.0002C8.68752 16.0002 8.92502 16.1002 9.12502 16.3002L11 18.1752L11 13.0002L13 13.0002L13 18.1752Z" fill="#E3E3E3"/>
</svg>
